<?xml version="1.0" encoding="UTF-8"?>
<svg width="33px" height="38px" viewBox="0 0 33 38" version="1.1" xmlns="http://www.w3.org/2000/svg" xmlns:xlink="http://www.w3.org/1999/xlink">
    <!-- Generator: Sketch 54.1 (76490) - https://sketchapp.com -->
    <title>ic_refresh</title>
    <desc>Created with Sketch.</desc>
    <g id="Page-1" stroke="none" stroke-width="1" fill="none" fill-rule="evenodd">
        <g id="Trending-" transform="translate(-986.000000, -315.000000)" fill="#000000" fill-rule="nonzero">
            <g id="ic_refresh" transform="translate(986.000000, 315.000000)">
                <path d="M23.188968,9.27904537 C22.7374177,9.27904537 22.3713822,9.65459744 22.370583,10.1189527 C22.3697837,10.5840784 22.7358193,10.961274 23.1873697,10.9620958 L32.1584367,10.9785313 C32.1592359,10.9785313 32.1592359,10.9785313 32.1600351,10.9785313 C32.6107863,10.9785313 32.9776209,10.6029793 32.9784202,10.1386753 L32.9999987,0.902673621 C33.0007979,0.438369695 32.6355616,0.060352289 32.183212,0.0595305648 C32.183212,0.0595305648 32.1824128,0.0595305648 32.1816136,0.0595305648 C31.7308624,0.0595305648 31.3640278,0.43508263 31.3632285,0.899386555 L31.3479937,7.29270796 C29.6124219,5.01957043 27.3983266,3.17837932 24.8305335,1.90524145 C20.3669781,-0.308625477 15.3359877,-0.603643344 10.6646393,1.07524683 C5.99169241,2.75331519 2.23303506,6.20395636 0.0815774305,10.7928098 C-0.11502682,11.211916 0.0560028965,11.7148434 0.462797818,11.9161787 C0.577883221,11.9737031 0.698563022,12 0.817644518,12 C1.1221413,12 1.41465006,11.8249615 1.55530999,11.5241912 C3.51815548,7.34047375 6.9443438,4.19389009 11.2041022,2.66374152 C15.4638605,1.13523649 20.0504933,1.40313577 24.1192418,3.42059806 C26.8128097,4.75675591 29.0826994,6.77442361 30.7468424,9.29275878 L23.1905666,9.27904537 C23.1897673,9.27904537 23.1897673,9.27904537 23.188968,9.27904537 Z" id="Path"></path>
                <path d="M0.816788009,37.9539242 C0.816788009,37.9539242 0.817587244,37.9539242 0.818386397,37.9539242 C1.2691376,37.9539242 1.63597225,37.5779121 1.63677148,37.1130394 L1.65140691,30.7114746 C3.38627936,32.9874997 5.60057448,34.8314605 8.16946653,36.106775 C10.7572897,37.3919629 13.494564,38 16.1926773,38 C23.0906086,38 29.7264011,34.0218414 32.9184226,27.2083706 C33.1150268,26.7895738 32.9439971,26.2852075 32.5372022,26.0836255 C32.1288089,25.8820436 31.6404951,26.0572964 31.4446901,26.4760933 C27.3959217,35.1161436 17.2708039,38.7544925 8.88075824,34.5895621 C6.18584168,33.251716 3.91575217,31.2310623 2.25275807,28.7101563 L9.80943348,28.7231152 C9.81023272,28.7231152 9.81023272,28.7231152 9.81103187,28.7231152 C10.2625822,28.7231152 10.6286177,28.3471031 10.629417,27.8822304 C10.6302162,27.4165349 10.2641806,27.0388772 9.81263026,27.0380545 L0.840764073,27.0224216 C0.839964838,27.0224216 0.839964838,27.0224216 0.839165685,27.0224216 C0.388414483,27.0224216 0.0215798322,27.3984337 0.0207805973,27.8633064 L1.3089364e-06,37.1097482 C-0.000797844102,37.574621 0.364438418,37.9531014 0.816788009,37.9539242 Z" id="Path"></path>
            </g>
        </g>
    </g>
</svg>